<svg xmlns="http://www.w3.org/2000/svg" xmlns:xlink="http://www.w3.org/1999/xlink" width="92" height="92" viewBox="0 0 92 92"><g><circle fill="#fff" cx="46" cy="46" r="45"/><path fill="#0E6EA8" d="M77 29h-55v-8.9c0-1.1.9-2.1 2.1-2.1h50.8c1.1 0 2.2.9 2.2 2.1v8.9z"/><circle fill="#3FB2E5" cx="29.5" cy="23.6" r="2.5"/><circle fill="#3FB2E5" cx="39.5" cy="23.6" r="2.5"/><path opacity=".61" fill="#3FB2E5" d="M60 31h17v13h-17z"/><path opacity=".33" fill="#3FB2E5" d="M60 46h17v13h-17z"/><path opacity=".61" fill="#3FB2E5" d="M60 61h17v13h-17z"/><path opacity=".33" fill="#3FB2E5" d="M41.1 31h16.9v13h-16.9z"/><path opacity=".61" fill="#3FB2E5" d="M22 31h16.9v13h-16.9z"/><defs><path id="a" d="M77 74h-55v-54c0-1.1.9-2 2-2h51c1.1 0 2 .9 2 2v54z"/></defs><clipPath id="b"><use xlink:href="#a" overflow="visible"/></clipPath><path opacity=".05" clip-path="url(#b)" fill="#1C1C1C" d="M95.8-5h-8c-11.9 45.1-52 78.7-100.3 80.8v5.2c0 .7.5 1.2 1.2 1.2h107.2c.7 0 1.2-.5 1.2-1.2v-84.8c-.1-.7-.6-1.2-1.3-1.2z"/><path fill="#1390CF" d="M15 46h43v28h-43z"/><path fill="#8FCBE9" d="M15 74h1l9.6-16.5 10.7 10.8 1.1-1v-.1l-.8.7-1.1-1.1.7-.7-20.2-20.1h-1v1l9.4 9.4-9.4 16.2zM37.4 67.2l9.9-9.6 9.5 16.4h1.2v-1.1l-9.5-16.4 9.5-9.5v-1h-1.2l-20.6 20.1-.7.7 1.1 1.1z"/></g></svg>